<svg xmlns="http://www.w3.org/2000/svg" width="4409.194" height="1160" viewBox="0 0 4409.194 1160">
  <g id="kvcmtv" transform="translate(-9307 -6524.5)">
    <g id="Group_22" data-name="Group 22" transform="translate(9307 6524.5)">
      <path id="Path_19" data-name="Path 19" d="M330.1,435.115l-122.75,117.89-43.92,207.911H0L158.041,12.858H321.467L246.291,368.67h6.455L389.748,224,603.186,12.871H788.079L470.439,320.442l182.181,440.5H460.163ZM895.6,760.916,811.733,12.858H977.306l35.966,359.023,9.55,234.7h3.244l106.57-234.71L1320.28,12.858h160.2l-402.1,748.058Zm791.823,12.858q-76.345,0-132.526-24.114t-89.119-71.8q-32.931-47.689-41.52-118.961t11.554-166.65q19.923-94.3,59.088-167.721t92.7-123.262A370.927,370.927,0,0,1,1707.854,25.71Q1774.565,0,1850.877,0q104.286,0,163.082,42.331t80.4,133.428l-156.218,72.88q-5.093-47.157-30.809-75.56t-87-28.409q-72.011,0-125.429,46.619t-72.186,135.588L1597.359,446.9q-18.814,88.95,14.921,135.588T1718.027,629.1q60.217,0,103.151-32.69a268.3,268.3,0,0,0,69.805-78.777L2008,594.8q-60.055,85.745-138.183,132.345T1687.425,773.774ZM2751.8,270.074h-3.244l-77.908,109.314L2468.485,644.1l-87.276-263.645-32.094-117.89h-3.244L2240.619,760.916H2086.866L2244.914,12.858h173.1L2527.826,363.3h2.147l255.75-350.441H2959.9L2801.851,760.916H2648.1Z" transform="translate(0 0)" fill="#80fb68"/>
      <g id="Group_4" data-name="Group 4" transform="translate(2863.131 12.858)">
        <path id="Rectangle_4" data-name="Rectangle 4" d="M4571.361,19.82H5959.383L5801.341,767.878H4413.32Z" transform="translate(-4413.32 -19.82)" fill="#ffe506"/>
        <path id="Path_18" data-name="Path 18" d="M5054.337,164.5,4926.858,767.878H4763.438L4890.911,164.5h-203.2l30.563-144.671h569.834L5257.537,164.5Zm364.946,603.374L5335.413,19.82h165.574l35.967,359.023,9.543,234.7h3.244L5656.3,378.831,5843.967,19.82h160.2L5602.055,767.878Z" transform="translate(-4509.7 -19.82)"/>
      </g>
    </g>
    <text id="The_Face_of_Valley_College" data-name="The Face of Valley College" transform="translate(9307 7602.5)" fill="#fff" font-size="297" font-family="IBMPlexSans, IBM Plex Sans"><tspan x="0" y="0">The Face of Valley College</tspan></text>
  </g>
</svg>
